<svg xmlns="http://www.w3.org/2000/svg" viewBox="0 0 352.04 70.45"><defs><style>.cls-1{fill:#2b2d36}</style></defs><g id="Layer_2" data-name="Layer 2"><g id="Layer_1-2" data-name="Layer 1"><path class="cls-1" d="M54.92 69h-13V41.42h-29V69H0V2.53h12.93v26.71h29V2.53h13zM63 7.78a7.56 7.56 0 012.23-5.48A7.32 7.32 0 0170.66 0a7.42 7.42 0 015.44 2.25 7.51 7.51 0 012.25 5.53 7.3 7.3 0 01-2.25 5.34 7.69 7.69 0 01-10.87 0A7.3 7.3 0 0163 7.78zM76.94 69H64.48V22.87h12.46zm37.58-46.32v12.56a19.09 19.09 0 00-3.75-.38 12.16 12.16 0 00-8.62 3q-3.29 3-3.28 10V69H86.4V22.87h12.09v6.84q3.38-7.22 13.12-7.22c.69 0 1.66.06 2.91.19zM289 69.05v-5a11.05 11.05 0 01-5.29 4.64 18.34 18.34 0 01-7.45 1.54q-8.16 0-12.84-5.2a18.62 18.62 0 01-4.69-13V22.94h12.47v26.61a10.06 10.06 0 002.15 6.7 7.72 7.72 0 006.28 2.58 8.34 8.34 0 006.37-2.48 9.25 9.25 0 002.34-6.61v-26.8h12.47v46.11zm-70.49-51.83l-5.35-15.25h-14.27l4.84 13.1 14.78 2.15zm29.62-15.25l-17.49 49.8-8.1-23.07-10.16 9.78 11.27 30.49h13.42l24.85-67h-13.79z"/><path id="Star" fill="#e1203c" fill-rule="evenodd" d="M187.09 49.46l-18.76 9.7 3.59-20.56-15.18-14.56 20.97-3 9.38-18.71 9.38 18.71 20.97 3-15.17 14.56 3.58 20.56-18.76-9.7z"/><path class="cls-1" d="M340.12 54.62c-1.89 3.42-5.1 5.15-9.63 5.15a11.71 11.71 0 01-8.06-3 10.2 10.2 0 01-3.56-7.5h33l.1-.65c0-.38 0-.88.05-1.5s0-1.19 0-1.69q0-11.15-6-17.53t-16.73-6.37a21.72 21.72 0 00-15.93 6.8q-6.75 6.8-6.75 17.47 0 11.25 6.93 18a23.38 23.38 0 0016.87 6.7q8.16 0 13.64-4.12a20 20 0 006.68-8.58zm-18-20.16a9.9 9.9 0 017.31-2.81q5 0 7.54 2.63a9.58 9.58 0 012.77 6.46h-20.59a9.42 9.42 0 013-6.28zM149.08 54.62c-1.9 3.39-5.09 5.1-9.6 5.1a11.71 11.71 0 01-8.06-3 10.2 10.2 0 01-3.56-7.5h33l.1-.66v-1.5c0-.63.05-1.18.05-1.68a31.37 31.37 0 00-1.18-8.82l-14.92-14.35a28.64 28.64 0 00-6.68-.75 21.73 21.73 0 00-15.93 6.79q-6.75 6.81-6.75 17.48 0 11.25 6.93 18a23.38 23.38 0 0016.87 6.7A22.11 22.11 0 00153 66.26a20 20 0 006.65-8.52zm-18-20.23a9.9 9.9 0 017.31-2.81q5 0 7.54 2.63a9.58 9.58 0 012.77 6.46h-20.59a9.42 9.42 0 013-6.28z"/></g></g></svg>